<?xml version="1.0" encoding="UTF-8"?>
<!-- Created with Inkscape (http://www.inkscape.org/) -->
<svg width="127.24mm" height="99.536mm" version="1.1" viewBox="0 0 127.24 99.536" xmlns="http://www.w3.org/2000/svg" xmlns:cc="http://creativecommons.org/ns#" xmlns:dc="http://purl.org/dc/elements/1.1/" xmlns:rdf="http://www.w3.org/1999/02/22-rdf-syntax-ns#">
 <metadata>
  <rdf:RDF>
   <cc:Work rdf:about="">
    <dc:format>image/svg+xml</dc:format>
    <dc:type rdf:resource="http://purl.org/dc/dcmitype/StillImage"/>
    <dc:title/>
   </cc:Work>
  </rdf:RDF>
 </metadata>
 <g transform="translate(-39.079 -85.171)">
  <g fill="none" stroke="#276fda" stroke-width="4">
   <path d="m60.136 120.33c-27.261-4.009-22.985 31.805-1.6036 28.865 5.9448 2.8293 7.8216 2.9036 13.774 0.64525"/>
   <path d="m77.474 138.18c-10.169 9.3656-1.0394 32.043 18.438 24.068"/>
   <path d="m98.29 150.35c-3.503 8.5618-1.0363 15.742 6.5126 18.894-1.0755 14.65 13.069 16.637 18.418 9.3596"/>
   <path d="m120.76 174.35c6.0686 6.103 14.003 5.1264 18.656 0.104"/>
   <path d="m134.65 167.92c3.6623 10.518 20.889 7.5556 16.08-7.6789"/>
   <path d="m48.192 119.92c-3.9688-11.906 15.119-24.001 26.08-10.016"/>
   <path d="m64.445 102.72c5.0837-6.7214 10.896-8.661 17.4-6.6146 7.4891-11.847 24.076-6.9372 26.533 3.8351"/>
   <path d="m101.7 90.133c6.8154-5.0781 18.842-4.2763 23.653 7.6172"/>
   <path d="m120.26 90.166c14.086-2.4311 22.219 2.5849 26.612 11.196"/>
   <path d="m137.11 100.69c14.967-4.009 34.745 16.972 14.7 34.21"/>
   <path d="m141.12 161.63c15.368-1.47 31.003-17.907 18.976-36.616"/>
   <path d="m68.354 128.22 7.2831-6.8822h50.447l8.3188 8.3188v21.148l-19.294 19.294 0.0835 11.242"/>
  </g>
  <circle cx="94.279" cy="106.57" r="6.1472" fill="#ffeb2f" fill-opacity=".50196" stroke="#276fda" stroke-width="4"/>
  <g fill="none" stroke="#276fda" stroke-width="4">
   <path d="m96.762 136.08h6.0476l13.985-13.985"/>
   <path d="m101.39 106.5h5.7641l13.702 13.702"/>
   <path d="m145.14 123.41v6.5201l-10.3 10.3"/>
   <path d="m115.47 151.1v6.0476l6.0004 6.0004"/>
  </g>
  <g fill="#ffeb2f" fill-opacity=".50196" stroke="#276fda" stroke-width="4">
   <circle cx="62.474" cy="133.43" r="6.1472"/>
   <circle cx="90.003" cy="136.1" r="6.1472"/>
   <circle cx="115.39" cy="144.52" r="6.1472"/>
   <circle cx="145.06" cy="117.13" r="6.1472"/>
  </g>
  <path transform="matrix(.26458 0 0 .26458 39.079 85.171)" d="m275.85 358.68c-8.1359-3.0954-14.455-10.209-17.643-19.86-1.2639-3.8261-1.5847-6.676-1.7346-15.409l-0.18393-10.714-5.0624-2.3096c-15.707-7.1662-23.579-17.331-25.345-32.726-0.78467-6.8425 1.4409-19.328 4.9038-27.51 0.43674-1.0319-2.6289-2.5809-13.579-6.8611-0.90206-0.3526-4.0953 8.8008-5.5912 16.027-1.4108 6.8152-1.9739 16.249-1.2574 21.065l0.61201 4.1136-5.417 1.7097c-9.0496 2.8562-13.655 3.483-22.717 3.0924-9.5346-0.411-14.496-1.8165-21.582-6.1144-24.837-15.064-32.078-53.414-13.902-73.63l3.2568-3.6223-10.472-11.577-4.4062 4.7259c-7.4276 7.9666-12.843 20.995-14.141 34.019l-0.46701 4.6881-6.2074 2.0399c-12.024 3.9512-20.119 3.2429-33.545-2.9353-5.5022-2.5318-5.553-2.54-16.591-2.6891-9.1938-0.12416-11.859-0.41274-15.714-1.7016-20.757-6.939-34.634-28.364-33.38-51.534 1.4801-27.351 22.111-43.169 53.699-41.17 4.3027 0.27226 8.1434 0.55407 8.535 0.62623 0.60106 0.11078 3.4417-14.476 2.9354-15.073-0.09528-0.11233-3.1885-0.54947-6.8738-0.97143-7.9712-0.91269-18.844-0.43304-26.597 1.1733-3.0857 0.63935-5.8167 0.95623-6.0687 0.70417-0.25206-0.25205-0.57354-2.9963-0.71441-6.0984-0.66542-14.653 9.2118-29.187 25.387-37.355 12.597-6.3616 29.375-6.639 41.241-0.68185 5.5742 2.7982 11.955 7.5806 15.959 11.962 1.9965 2.1845 3.8432 3.9719 4.1037 3.9719 0.73318 0 11.771-8.8609 11.773-9.4509 4e-3 -1.123-9.6895-10.714-14.227-14.078-2.6354-1.9537-7.5835-4.8919-10.996-6.5292-3.4123-1.6373-6.2041-3.1931-6.2041-3.4572 0-0.69262 4.7276-5.083 9.2486-8.589 8.4013-6.515 16.564-9.3577 26.926-9.3769 6.9472-0.01288 8.0412 0.15109 15.15 2.2708 2.4967 0.74442 4.95 1.3535 5.4518 1.3535s2.3161-2.1693 4.0319-4.8206c13.928-21.522 38.349-27.984 62.048-16.419 10.446 5.0974 20.852 16.986 23.125 26.418 0.57697 2.3942 1.1933 2.4252 9.6241 0.48412l6.4287-1.4802-1.073-3.6984c-2.6662-9.1902-9.3596-19.475-17.162-26.369l-3.6993-3.2688 3.4916-1.502c6.3063-2.7129 12.166-3.8681 19.621-3.8681 19.927 0 35.831 10.465 45.619 30.017l2.5712 5.1366 6.9764-2.9001c3.837-1.595 7.0894-3.0016 7.2273-3.1256 0.5106-0.45887-5.0321-11.145-8.1205-15.656l-3.1923-4.6628 8.7452 0.02206c24.396 0.06152 42.126 6.59 55.752 20.528l3.4357 3.5144-7.0072 0.43179c-7.0783 0.43617-14.507 1.6998-14.507 2.4676 0 0.22941 0.85388 3.5946 1.8975 7.4782l1.8975 7.0611 3.9954-0.57314c19.525-2.8009 39.685 4.4209 55.111 19.741 8.6034 8.5449 13.503 16.604 16.826 27.68 2.5062 8.3517 2.6622 20.5 0.37291 29.031-3.0705 11.442-9.6349 22.063-20.704 33.496l-6.7293 6.951 1.8198 2.3348c1.0009 1.2841 3.283 3.9419 5.0715 5.9062l3.2517 3.5714 7.7433-7.8572c7.6774-7.7903 11.755-12.806 15.326-18.85l1.8524-3.1358 1.7561 3.4929c5.3626 10.666 7.9768 23.296 7.4497 35.993-0.45486 10.958-2.1579 17.724-6.9466 27.601-12.043 24.84-39.189 44.448-67.758 48.943l-5.9237 0.93209 0.45407 5.7258c0.66643 8.4038 0.99721 9.6544 2.5536 9.6544 2.8386 0 16.216-2.9174 21.601-4.7109 3.4298-1.1422 5.8935-1.6199 6.2933-1.2201 1.0469 1.0469 1.8635 12.169 1.2323 16.784-0.31698 2.3178-1.264 5.8126-2.1044 7.7663-1.9869 4.6187-7.9906 10.151-12.722 11.722-3.6606 1.2159-11.089 1.5545-14.744 0.67224-6.6265-1.5995-13.583-7.2184-16.731-13.514-0.98215-1.9643-1.8415-3.6808-1.9097-3.8144-0.31286-0.61335-14.519 4.5714-14.519 5.2989 0 2.6484 5.675 11.74 10.075 16.139l4.8274 4.8274-4.0144 2.511c-6.8378 4.2771-12.263 5.7503-20.888 5.6722-10.559-0.0956-17.012-2.5718-26.195-10.052l-3.9866-3.2471-10.89 10.98 7.7816 7.0504-2.8194 2.8962c-2.3048 2.3677-10.32 7.0952-12.029 7.0952-0.23848 0-0.43359-7.9565-0.43359-17.681v-17.681l72.857-72.847v-38.586l40.714-40.695v-20.946l4.6599-2.1806c12.22-5.7184 19.542-19.534 17.43-32.886-2.6335-16.647-18.808-28.545-35.138-25.849-10.414 1.7198-18.572 7.7068-23.165 17-2.365 4.7853-2.6875 6.1014-2.9466 12.025-0.34744 7.9438 0.88217 12.635 4.9696 18.959 3.1557 4.8824 9.6259 9.9723 14.906 11.726l3.5703 1.1859v14.543l-25 24.969v-25.689l-36.061-36.082h-9.6124c-7.5749 0-9.4273-0.1851-8.7391-0.87325 0.68816-0.68816-4.845-6.593-26.104-27.857l-26.977-26.984h-11.254c-8.9309 0-11.254-0.19759-11.254-0.95734 0-2.5019-4.6273-9.8653-8.5521-13.609-17.464-16.658-46.453-7.6056-51.536 16.094-2.9062 13.551 4.4187 28.206 17.168 34.349 4.0463 1.9495 5.6708 2.3082 11.601 2.5613 10.511 0.44877 17.433-2.3494 24.5-9.9046 3.0621-3.2736 6.7954-9.8097 6.812-11.926 5e-3 -0.66099 2.095-0.89286 8.0475-0.89286h8.0405l39.981 40-159.28 2e-3 -29.267 27.621-4.652-2.2046c-4.3592-2.0659-5.1692-2.2047-12.866-2.2047-7.8945 0-8.4082 0.0947-13.195 2.4338-6.394 3.1246-11.548 8.2738-14.709 14.694-2.3651 4.8048-2.4538 5.2824-2.4538 13.214 0 7.7257 0.1354 8.5134 2.2124 12.872 8.3702 17.565 29.803 23.541 45.746 12.754 11.684-7.9049 16.668-24.01 11.362-36.71l-1.1541-2.7623 3.0599-3.0126c1.6829-1.6569 7.3762-7.0559 12.652-11.998l9.5919-8.9853h136.52l-39.981 40h-7.7058c-6.7053 0-7.7594-0.16229-8.1187-1.25-4.5644-13.816-17.059-22.28-31.646-21.436-14.612 0.84591-25.987 11.088-28.707 25.846-1.7012 9.233 1.7534 19.691 8.831 26.732 16.627 16.543 43.842 9.7127 51.511-12.928 0.37855-1.1176 1.5813-1.25 11.351-1.25h10.928l55.647-55.714h25.815l26.728 26.991v73.375l-39.993 39.973-15.722-15.673v-15.268l2.1081-0.46302c3.2456-0.71284 10.199-5.5248 13.101-9.0658 10.514-12.831 9.4832-31.023-2.3996-42.358-15.309-14.602-39.643-10.273-49.031 8.723-2.4061 4.8684-2.6902 6.0542-2.9364 12.256-0.22385 5.6395-3e-3 7.6313 1.2355 11.152 3.1169 8.8581 10.621 16.623 18.638 19.286l3.5703 1.1859v20.939l20.339 20.376-21.748 21.785-0.18862 21.171-0.18863 21.171z" fill="#5ae4aa" fill-opacity=".50196"/>
 </g>
</svg>
