<?xml version="1.0" encoding="UTF-8"?>
<!-- Created with Inkscape (http://www.inkscape.org/) -->
<svg width="127.24mm" height="99.536mm" version="1.1" viewBox="0 0 127.24 99.536" xmlns="http://www.w3.org/2000/svg" xmlns:cc="http://creativecommons.org/ns#" xmlns:dc="http://purl.org/dc/elements/1.1/" xmlns:rdf="http://www.w3.org/1999/02/22-rdf-syntax-ns#">
 <metadata>
  <rdf:RDF>
   <cc:Work rdf:about="">
    <dc:format>image/svg+xml</dc:format>
    <dc:type rdf:resource="http://purl.org/dc/dcmitype/StillImage"/>
    <dc:title/>
   </cc:Work>
  </rdf:RDF>
 </metadata>
 <g transform="translate(-39.079 -85.171)" stroke="#000" stroke-width="4">
  <g fill="none">
   <path d="m60.136 120.33c-27.261-4.009-22.985 31.805-1.6036 28.865 5.9448 2.8293 7.8216 2.9036 13.774 0.64525"/>
   <path d="m77.474 138.18c-10.169 9.3656-1.0394 32.043 18.438 24.068"/>
   <path d="m98.29 150.35c-3.503 8.5618-1.0363 15.742 6.5126 18.894-1.0755 14.65 13.069 16.637 18.418 9.3596"/>
   <path d="m120.76 174.35c6.0686 6.103 14.003 5.1264 18.656 0.104"/>
   <path d="m134.65 167.92c3.6623 10.518 20.889 7.5556 16.08-7.6789"/>
   <path d="m48.192 119.92c-3.9688-11.906 15.119-24.001 26.08-10.016"/>
   <path d="m64.445 102.72c5.0837-6.7214 10.896-8.661 17.4-6.6146 7.4891-11.847 24.076-6.9372 26.533 3.8351"/>
   <path d="m101.7 90.133c6.8154-5.0781 18.842-4.2763 23.653 7.6172"/>
   <path d="m120.26 90.166c14.086-2.4311 22.219 2.5849 26.612 11.196"/>
   <path d="m137.11 100.69c14.967-4.009 34.745 16.972 14.7 34.21"/>
   <path d="m141.12 161.63c15.368-1.47 31.003-17.907 18.976-36.616"/>
   <path d="m68.354 128.22 7.2831-6.8822h50.447l8.3188 8.3188v21.148l-19.294 19.294 0.0835 11.242"/>
  </g>
  <circle cx="94.279" cy="106.57" r="6.1472" fill="#ffeb2f" fill-opacity=".50196"/>
  <g fill="none">
   <path d="m96.762 136.08h6.0476l13.985-13.985"/>
   <path d="m101.39 106.5h5.7641l13.702 13.702"/>
   <path d="m145.14 123.41v6.5201l-10.3 10.3"/>
   <path d="m115.47 151.1v6.0476l6.0004 6.0004"/>
  </g>
  <g fill="#ffeb2f" fill-opacity=".50196">
   <circle cx="62.474" cy="133.43" r="6.1472"/>
   <circle cx="90.003" cy="136.1" r="6.1472"/>
   <circle cx="115.39" cy="144.52" r="6.1472"/>
   <circle cx="145.06" cy="117.13" r="6.1472"/>
  </g>
 </g>
</svg>
