<svg width="480.907" height="376.199" viewBox="0 0 127.24 99.536" xmlns="http://www.w3.org/2000/svg"><g transform="translate(-39.079 -85.171)" stroke="#000" stroke-width="4"><g fill="none"><path d="M60.136 120.33c-27.261-4.009-22.985 31.805-1.604 28.865 5.945 2.83 7.822 2.904 13.774.645M77.474 138.18c-10.169 9.366-1.04 32.043 18.438 24.068M98.29 150.35c-3.503 8.562-1.036 15.742 6.513 18.894-1.076 14.65 13.069 16.637 18.418 9.36M120.76 174.35c6.069 6.103 14.003 5.126 18.656.104M134.65 167.92c3.662 10.518 20.889 7.556 16.08-7.679M48.192 119.92c-3.969-11.906 15.119-24.001 26.08-10.016"/><path d="M64.445 102.72c5.084-6.721 10.896-8.661 17.4-6.615 7.49-11.847 24.076-6.937 26.533 3.835M101.7 90.133c6.815-5.078 18.842-4.276 23.653 7.617M120.26 90.166c14.086-2.431 22.219 2.585 26.612 11.196M137.11 100.69c14.967-4.009 34.745 16.972 14.7 34.21M141.12 161.63c15.368-1.47 31.003-17.907 18.976-36.616M68.354 128.22l7.283-6.882h50.447l8.319 8.319v21.148l-19.294 19.294.083 11.242"/></g><circle cx="94.279" cy="106.57" r="6.147" fill="#ffeb2f" fill-opacity=".502"/><g fill="none"><path d="M96.762 136.08h6.048l13.985-13.985M101.39 106.5h5.764l13.702 13.702M145.14 123.41v6.52l-10.3 10.3M115.47 151.1v6.048l6 6"/></g><g fill="#ffeb2f" fill-opacity=".502"><circle cx="62.474" cy="133.43" r="6.147"/><circle cx="90.003" cy="136.1" r="6.147"/><circle cx="115.39" cy="144.52" r="6.147"/><circle cx="145.06" cy="117.13" r="6.147"/></g></g></svg>