<svg height="464pt" viewBox="0 -56 464 464" width="464pt" xmlns="http://www.w3.org/2000/svg"><path d="M72 128v120c97.066 64 222.934 64 320 0V128zm0 0" fill="#394d5c"/><path d="M232.902 0L0 100l232 100 232-100zm0 0" fill="#546977"/><path d="M256 96c0 13.254-10.746 24-24 24s-24-10.746-24-24 10.746-24 24-24 24 10.746 24 24zm0 0" fill="#cfdfe8"/><path d="M400 304h48v48h-48zm0 0" fill="#546977"/><path d="M424 312a8 8 0 01-8-8V104H232a8 8 0 010-16h192a8 8 0 018 8v208a8 8 0 01-8 8zm0 0" fill="#91b2bc"/></svg>